<svg id="Layer_1" data-name="Layer 1" xmlns="http://www.w3.org/2000/svg" viewBox="0 0 283.46 61.58"><defs><style>.cls-1{fill:#5225b5;}</style></defs><title>DrR_Logo_Primary_RGB</title><path class="cls-1" d="M231.59,250.32h-8.11a1,1,0,0,0-1,1v28.24a1,1,0,0,0,1,1h8.07c8.6,0,14.95-5.53,14.95-15.07s-6.3-15.11-14.9-15.11M231.34,275h-3V255.77h3c4.94,0,9,3.11,9,9.66s-4.13,9.63-9.07,9.63m34.36-2a3.87,3.87,0,1,1-3.87,3.87A3.9,3.9,0,0,1,265.7,273m25-4.89a8.56,8.56,0,0,0,6.43-8.55c0-5.24-3.74-9.28-9.62-9.28H276.64a1,1,0,0,0-1,1v28.24a1,1,0,0,0,1,1h4a1,1,0,0,0,1-1V268.87h3.06l5.44,10.65a1.85,1.85,0,0,0,1.46,1h4.58c0.53,0,.75-0.44.48-1Zm-4.3-4.34h-4.77v-8.39h4.77c3,0,4.72,1.66,4.72,4.21s-1.74,4.17-4.72,4.17m-24.74-4.43a12.65,12.65,0,0,1,1.32.08v5.7a8.34,8.34,0,0,0-1.7-.17c-2.89,0-5.41,1.41-5.41,5.91v8.62a1,1,0,0,1-1,1h-3.73a1,1,0,0,1-1-1v-19a1,1,0,0,1,1-.94h3.62a1,1,0,0,1,.9,1v2.15c1.28-2.77,4.18-3.27,6-3.27m132.61,1.13-12.31,27.33a1.85,1.85,0,0,1-1.42.91h-4.07c-0.53,0-.73-0.43-0.48-1l4.5-9.93L372,260.52c-0.3-.53-0.11-1,0.42-1h4.38a2,2,0,0,1,1.51,1l5.14,11.29,4.74-11.3a2,2,0,0,1,1.5-1h4.1C394.33,259.55,394.48,260,394.22,260.51Zm-85.53-1.6c-5.36,0-10.29,4.34-10.29,11,0,7.06,5.06,11.19,10.8,11.19,4.8,0,8-2.62,9.25-5.9a0.73,0.73,0,0,0-.44-0.94l-3.27-1a0.91,0.91,0,0,0-1,.44,4.61,4.61,0,0,1-4.49,2.54,5.1,5.1,0,0,1-5.28-4.76h14.09a1,1,0,0,0,1-1c0-.25,0-0.52,0-0.8,0-6.72-3.87-10.85-10.34-10.85m-4.59,8.72a4.53,4.53,0,0,1,4.68-4.13c3.24,0,4.6,2,4.68,4.13H304.1Zm59.25-6c-0.62-1.1-2.32-2.55-5.89-2.55-5.92,0-10,4.81-10,10.94,0,6.34,4.25,11,10.21,11a6.56,6.56,0,0,0,5.87-2.94,17.36,17.36,0,0,0,.16,2.07,0.57,0.57,0,0,0,.52.35H368a1,1,0,0,0,1-1V250.64a1,1,0,0,0-1-1h-3.65a1,1,0,0,0-1,1v10.95Zm-5,14.34c-3,0-5.2-2.21-5.2-6s2.3-5.87,5.2-5.87,5.15,2.09,5.15,5.83-2.26,6-5.15,6m-20.14-14.34c-0.62-1.1-2.32-2.55-5.89-2.55-5.92,0-10,4.81-10,10.94,0,6.34,4.25,11,10.21,11a6.56,6.56,0,0,0,5.87-2.94,17.33,17.33,0,0,0,.16,2.07,0.57,0.57,0,0,0,.52.35h3.79a1,1,0,0,0,1-1V250.64a1,1,0,0,0-1-1h-3.65a1,1,0,0,0-1,1v10.95Zm-5,14.34c-3,0-5.2-2.21-5.2-6s2.3-5.87,5.2-5.87,5.15,2.09,5.15,5.83-2.26,6-5.15,6M403,254.24c-0.17.37-3.16,6.3-3.16,6.3a0.62,0.62,0,0,1-.5.32h-1.89a0.35,0.35,0,0,1-.35-0.35,0.38,0.38,0,0,1,0-.09l1.89-4.23a3.45,3.45,0,1,1,4.31-3.34A3,3,0,0,1,403,254.24Zm59.32,13.42a3.1,3.1,0,1,1-3.09-3.09,3.1,3.1,0,0,1,3.09,3.09m3.6,19.35V244.87a16.3,16.3,0,0,0-9.57-14.46,17.09,17.09,0,0,0-5.89-1.42c-10.22-.54-18.12,5.51-20.23,13.67a19.63,19.63,0,0,0,3.11,16c4.2,6.16,21.46,22.51,29.8,29.79a1.73,1.73,0,0,0,1,.34,1.75,1.75,0,0,0,1.75-1.74m12.94-21.82a7.69,7.69,0,1,1-7.69,7.69,7.69,7.69,0,0,1,7.69-7.69m-7.69,17.45a2.65,2.65,0,1,1-2.66,2.66,2.65,2.65,0,0,1,2.66-2.66m22.33-36.15a10.22,10.22,0,1,1-10.21,10.22,10.21,10.21,0,0,1,10.21-10.22m7.11-12.58a5.36,5.36,0,1,1-5.36,5.36,5.36,5.36,0,0,1,5.36-5.36m-20.51,12.88a9.81,9.81,0,1,1,9.82-9.81,9.81,9.81,0,0,1-9.82,9.81m0.38,8.64a5.83,5.83,0,1,1-5.83-5.83,5.83,5.83,0,0,1,5.83,5.83m-69,12.38c4.13,0.85,6.21,3.36,6.21,6.43,0,3.4-2.64,6.89-8.13,6.89s-7.88-3.15-8.54-5.53a1,1,0,0,1,.66-1.12l3.56-.79a0.46,0.46,0,0,1,.51.33,3.49,3.49,0,0,0,3.76,2.77c1.87,0,2.77-1,2.77-2.09,0-.94-0.64-1.7-2.25-2l-2.77-.64c-4-.89-5.87-3.32-5.87-6.25,0-3.74,3.32-6.85,7.83-6.85,5.21,0,7.39,2.89,8,5.13a1,1,0,0,1-.66,1.1l-3,.69a0.87,0.87,0,0,1-1.07-.65,3.19,3.19,0,0,0-3.22-2c-1.49,0-2.68.89-2.68,2.08a2,2,0,0,0,1.92,1.88l3,0.64" transform="translate(-222.51 -227.17)"/></svg>